<svg xmlns="http://www.w3.org/2000/svg" viewBox="0 0 64 64"><g data-name="19-pine tree"><path d="M23.88 40a3.715 3.715 0 0 0 2.05-.62L28 38l-6.95 4.98a.6.6 0 0 0-.15.09 2.7 2.7 0 0 0-.5.33l-1.47.98a3.715 3.715 0 0 1-2.05.62h-1.17a3.705 3.705 0 0 1-1.66-7.02l1.63-.98L19 35l.21.08a3.5 3.5 0 0 0-.21 1.21A3.709 3.709 0 0 0 22.71 40zM43.1 43.07a.6.6 0 0 0-.15-.09L36 38l2.07 1.38a3.715 3.715 0 0 0 2.05.62h1.17A3.709 3.709 0 0 0 45 36.29a3.5 3.5 0 0 0-.21-1.21L45 35l3.32 2 1.63.98A3.705 3.705 0 0 1 48.29 45h-1.17a3.715 3.715 0 0 1-2.05-.62l-1.47-.98a2.7 2.7 0 0 0-.5-.33z" style="fill:#004228"/><path d="M38 49.33 36 48V38l6.95 4.98a.6.6 0 0 1 .15.09l.5.33a3.649 3.649 0 0 1 1.4 2.89A3.709 3.709 0 0 1 41.29 50h-1.17a3.715 3.715 0 0 1-2.05-.62zM28 48l-2 1.33-.07.05a3.715 3.715 0 0 1-2.05.62h-1.17A3.709 3.709 0 0 1 19 46.29a4.073 4.073 0 0 1 1.4-2.89l.5-.33a.6.6 0 0 1 .15-.09L28 38v10z" style="fill:#004a2d"/><path d="M35 51.64A3.984 3.984 0 0 1 32 53a4.025 4.025 0 0 1-2.83-1.17 1.537 1.537 0 0 1-.17-.19A4 4 0 0 1 28 49V39a4 4 0 0 0 8 0v10a3.98 3.98 0 0 1-1 2.64z" style="fill:#004f30"/><path d="M12 31.29A3.709 3.709 0 0 0 15.71 35h1.17a3.715 3.715 0 0 0 2.05-.62l1.47-.98a3.588 3.588 0 0 0-1.19 1.68L19 35l-3.32 2h-1.97a3.705 3.705 0 0 1-1.66-7.02l.17.07a3.447 3.447 0 0 0-.22 1.24zM54 33.29A3.709 3.709 0 0 1 50.29 37h-1.97L45 35l-.21.08a3.588 3.588 0 0 0-1.19-1.68l1.47.98a3.715 3.715 0 0 0 2.05.62h1.17A3.709 3.709 0 0 0 52 31.29a3.5 3.5 0 0 0-.21-1.21L52 30a3.623 3.623 0 0 1 2 3.29z" style="fill:#003620"/><path d="M51.95 22.98A3.688 3.688 0 0 1 54 26.29 4.4 4.4 0 0 1 52 30l-.21.08a3.657 3.657 0 0 0-1.84-2.1L45 25h.53a4.469 4.469 0 0 0 4.22-3H50zM14.25 22a4.469 4.469 0 0 0 4.22 3H19l-4.95 2.98c-.49.24-.9.58-1.83 2.07l-.17-.07L12 30a4.4 4.4 0 0 1-2-3.71 3.688 3.688 0 0 1 2.05-3.31L14 22z" style="fill:#002e1b"/><path d="M43.1 33.07a.6.6 0 0 0-.15-.09L39 31v-2.18a3.549 3.549 0 0 0 1.12.18h1.17A3.709 3.709 0 0 0 45 25.29l-.02-.29H45l4.95 2.98a3.657 3.657 0 0 1 1.84 2.1 3.5 3.5 0 0 1 .21 1.21A3.709 3.709 0 0 1 48.29 35h-1.17a3.715 3.715 0 0 1-2.05-.62l-1.47-.98a2.7 2.7 0 0 0-.5-.33zM25 31l-3.95 1.98a.6.6 0 0 0-.15.09 2.7 2.7 0 0 0-.5.33l-1.47.98a3.715 3.715 0 0 1-2.05.62h-1.17A3.709 3.709 0 0 1 12 31.29a3.447 3.447 0 0 1 .22-1.24c.93-1.49 1.34-1.83 1.83-2.07L19 25h.02l-.02.29A3.709 3.709 0 0 0 22.71 29h1.17a3.549 3.549 0 0 0 1.12-.18z" style="fill:#008f57"/><path d="m39 31 3.95 1.98a.6.6 0 0 1 .15.09l.5.33a3.588 3.588 0 0 1 1.19 1.68 3.5 3.5 0 0 1 .21 1.21A3.709 3.709 0 0 1 41.29 40h-1.17a3.715 3.715 0 0 1-2.05-.62L36 38V27l2.07 1.38a3.6 3.6 0 0 0 .93.44zM28 27v11l-2.07 1.38a3.715 3.715 0 0 1-2.05.62h-1.17A3.709 3.709 0 0 1 19 36.29a3.5 3.5 0 0 1 .21-1.21 3.588 3.588 0 0 1 1.19-1.68l.5-.33a.6.6 0 0 1 .15-.09L25 31v-2.18a3.6 3.6 0 0 0 .93-.44z" style="fill:#007145"/><path d="M32 31a4 4 0 0 0 4-4v12a4 4 0 1 1-8 0V27a3.995 3.995 0 0 0 4 4z" style="fill:#00613b"/><path d="M45 25h-.02a3.779 3.779 0 0 0-2.03-3.02L39 20v-2.18a3.549 3.549 0 0 0 1.12.18h1.17a3.718 3.718 0 0 0 3.64-3.01L45 15l2.83 1.7a4.469 4.469 0 0 1-2.3 8.3zM14.25 22a4.461 4.461 0 0 1 1.92-5.3L19 15l.07-.01A3.7 3.7 0 0 0 22.71 18h1.17a3.549 3.549 0 0 0 1.12-.18V20l-3.95 1.98A3.657 3.657 0 0 0 19.02 25h-.55a4.469 4.469 0 0 1-4.22-3z" style="fill:#007145"/><path d="M36 27V16l2.07 1.38a3.6 3.6 0 0 0 .93.44V20l3.95 1.98A3.779 3.779 0 0 1 44.98 25l.02.29A3.709 3.709 0 0 1 41.29 29h-1.17a3.549 3.549 0 0 1-1.12-.18 3.6 3.6 0 0 1-.93-.44zM28 16v11l-2.07 1.38a3.6 3.6 0 0 1-.93.44 3.549 3.549 0 0 1-1.12.18h-1.17A3.709 3.709 0 0 1 19 25.29l.02-.29a3.657 3.657 0 0 1 2.03-3.02L25 20v-2.18a3.6 3.6 0 0 0 .93-.44z" style="fill:#009e60"/><path d="M36 16v11a4 4 0 1 1-8 0V16l.12-.03a4 4 0 0 0 7.76 0z" style="fill:#008f57"/><path d="M35.88 15.97a4 4 0 0 1-7.76 0L28 16l-2.07 1.38a3.6 3.6 0 0 1-.93.44 3.549 3.549 0 0 1-1.12.18h-1.17a3.7 3.7 0 0 1-3.64-3.01 3.26 3.26 0 0 1-.07-.7 3.688 3.688 0 0 1 2.05-3.31L25 9l1.6-4.25a5.762 5.762 0 0 1 10.8 0L39 9l3.95 1.98A3.688 3.688 0 0 1 45 14.29a3.26 3.26 0 0 1-.07.7A3.718 3.718 0 0 1 41.29 18h-1.17a3.549 3.549 0 0 1-1.12-.18 3.6 3.6 0 0 1-.93-.44L36 16z" style="fill:#00c477"/><path d="M35 51.64A3.98 3.98 0 0 0 36 49v-1l2 1.33v3.32a2 2 0 0 0 1.26 1.85l2.24.9a2.385 2.385 0 0 1-.89 4.6h-.05a2.428 2.428 0 0 1-1.06-.25L35 57zM29 51.64V57l-4.5 2.75a2.428 2.428 0 0 1-1.06.25h-.05a2.385 2.385 0 0 1-.89-4.6l2.24-.9A2 2 0 0 0 26 52.65v-3.32L28 48v1a4 4 0 0 0 1 2.64z" style="fill:#7c4026"/><path d="M35 51.64V57l3.13 2.42a1.954 1.954 0 0 1 .87 1.62v.01A1.946 1.946 0 0 1 37.05 63h-1.24a1.961 1.961 0 0 1-1.38-.57L32 60l-2.43 2.43a1.961 1.961 0 0 1-1.38.57h-1.24A1.946 1.946 0 0 1 25 61.05v-.01a1.954 1.954 0 0 1 .87-1.62L29 57v-5.36a1.537 1.537 0 0 0 .17.19A4.025 4.025 0 0 0 32 53a3.984 3.984 0 0 0 3-1.36z" style="fill:#9a6948"/><path d="M28 11.442a2 2 0 0 0-1.368-1.9L25 9l-3.95 1.98A3.688 3.688 0 0 0 19 14.29a3.26 3.26 0 0 0 .07.7A3.7 3.7 0 0 0 22.71 18h1.17a3.549 3.549 0 0 0 1.12-.18 3.6 3.6 0 0 0 .93-.44L28 16l.12-.03a3.916 3.916 0 0 0 .144.424A3.965 3.965 0 0 1 28 15zM42.95 10.98 39 9l-1.632.544A2 2 0 0 0 36 11.442V15a3.985 3.985 0 0 1-.3 1.524 4.134 4.134 0 0 0 .184-.554L36 16l2.07 1.38a3.6 3.6 0 0 0 .93.44 3.549 3.549 0 0 0 1.12.18h1.17a3.718 3.718 0 0 0 3.64-3.01 3.26 3.26 0 0 0 .07-.7 3.688 3.688 0 0 0-2.05-3.31z" style="fill:#009e60"/><path d="m41.606 58.4-4.394-1.884A2 2 0 0 1 36 54.681v-1.445a2 2 0 0 1 1.106-1.789L38 51v-1.67L36 48v1a3.98 3.98 0 0 1-1 2.64V57l4.5 2.75a2.428 2.428 0 0 0 1.06.25h.05A2.39 2.39 0 0 0 43 57.61c0-.02-.008-.038-.009-.058a1 1 0 0 1-1.385.848zM28 48l-2 1.33V51l.894.447A2 2 0 0 1 28 53.236v1.445a2 2 0 0 1-1.212 1.838L22.394 58.4a1 1 0 0 1-1.385-.851c0 .02-.009.038-.009.058A2.39 2.39 0 0 0 23.39 60h.05a2.428 2.428 0 0 0 1.06-.25L29 57v-5.36A4 4 0 0 1 28 49z" style="fill:#5d241d"/><path d="M32.917 54.955A9.093 9.093 0 0 0 35 54.562V51.64A3.984 3.984 0 0 1 32 53a4.025 4.025 0 0 1-2.83-1.17 1.537 1.537 0 0 1-.17-.19V57l-3.13 2.42a1.954 1.954 0 0 0-.87 1.62v.01A1.946 1.946 0 0 0 26.95 63h1.24a1.961 1.961 0 0 0 1.38-.57L32 60v-4.049a1 1 0 0 1 .917-.996z" style="fill:#7c4026"/></g></svg>
